<mxfile host="Electron" modified="2023-05-21T14:43:27.490Z" agent="Mozilla/5.0 (Windows NT 10.0; Win64; x64) AppleWebKit/537.36 (KHTML, like Gecko) draw.io/21.2.8 Chrome/112.0.5615.165 Electron/24.2.0 Safari/537.36" etag="-8-dt6xHj7K6CFkkVzWU" version="21.2.8" type="device">
  <diagram name="Page-1" id="2YBvvXClWsGukQMizWep">
    <mxGraphModel dx="1653" dy="1116" grid="1" gridSize="10" guides="1" tooltips="1" connect="1" arrows="1" fold="1" page="1" pageScale="1" pageWidth="2000" pageHeight="3000" math="0" shadow="0">
      <root>
        <mxCell id="0" />
        <mxCell id="1" parent="0" />
        <mxCell id="qfSZDwXXwT5z3ixHB-q2-9" value="ScheduleRenovationForm" style="shape=umlLifeline;perimeter=lifelinePerimeter;whiteSpace=wrap;html=1;container=1;dropTarget=0;collapsible=0;recursiveResize=0;outlineConnect=0;portConstraint=eastwest;newEdgeStyle={&quot;edgeStyle&quot;:&quot;elbowEdgeStyle&quot;,&quot;elbow&quot;:&quot;vertical&quot;,&quot;curved&quot;:0,&quot;rounded&quot;:0};" parent="1" vertex="1">
          <mxGeometry x="180" y="40" width="140" height="2470" as="geometry" />
        </mxCell>
        <mxCell id="qfSZDwXXwT5z3ixHB-q2-12" value="" style="html=1;points=[];perimeter=orthogonalPerimeter;outlineConnect=0;targetShapes=umlLifeline;portConstraint=eastwest;newEdgeStyle={&quot;edgeStyle&quot;:&quot;elbowEdgeStyle&quot;,&quot;elbow&quot;:&quot;vertical&quot;,&quot;curved&quot;:0,&quot;rounded&quot;:0};" parent="qfSZDwXXwT5z3ixHB-q2-9" vertex="1">
          <mxGeometry x="65" y="80" width="10" height="300" as="geometry" />
        </mxCell>
        <mxCell id="qfSZDwXXwT5z3ixHB-q2-38" value="" style="html=1;points=[];perimeter=orthogonalPerimeter;outlineConnect=0;targetShapes=umlLifeline;portConstraint=eastwest;newEdgeStyle={&quot;edgeStyle&quot;:&quot;elbowEdgeStyle&quot;,&quot;elbow&quot;:&quot;vertical&quot;,&quot;curved&quot;:0,&quot;rounded&quot;:0};" parent="qfSZDwXXwT5z3ixHB-q2-9" vertex="1">
          <mxGeometry x="66" y="570" width="10" height="1330" as="geometry" />
        </mxCell>
        <mxCell id="qfSZDwXXwT5z3ixHB-q2-60" value="" style="html=1;points=[];perimeter=orthogonalPerimeter;outlineConnect=0;targetShapes=umlLifeline;portConstraint=eastwest;newEdgeStyle={&quot;edgeStyle&quot;:&quot;elbowEdgeStyle&quot;,&quot;elbow&quot;:&quot;vertical&quot;,&quot;curved&quot;:0,&quot;rounded&quot;:0};" parent="qfSZDwXXwT5z3ixHB-q2-9" vertex="1">
          <mxGeometry x="70" y="866" width="10" height="20" as="geometry" />
        </mxCell>
        <mxCell id="qfSZDwXXwT5z3ixHB-q2-61" value="check=true" style="html=1;align=left;spacingLeft=2;endArrow=block;rounded=0;edgeStyle=orthogonalEdgeStyle;curved=0;rounded=0;" parent="qfSZDwXXwT5z3ixHB-q2-9" target="qfSZDwXXwT5z3ixHB-q2-60" edge="1">
          <mxGeometry relative="1" as="geometry">
            <mxPoint x="75" y="846" as="sourcePoint" />
            <Array as="points">
              <mxPoint x="105" y="876" />
            </Array>
          </mxGeometry>
        </mxCell>
        <mxCell id="qfSZDwXXwT5z3ixHB-q2-11" value="" style="shape=umlLifeline;perimeter=lifelinePerimeter;whiteSpace=wrap;html=1;container=1;dropTarget=0;collapsible=0;recursiveResize=0;outlineConnect=0;portConstraint=eastwest;newEdgeStyle={&quot;edgeStyle&quot;:&quot;elbowEdgeStyle&quot;,&quot;elbow&quot;:&quot;vertical&quot;,&quot;curved&quot;:0,&quot;rounded&quot;:0};participant=umlActor;" parent="1" vertex="1">
          <mxGeometry x="60" y="40" width="20" height="2470" as="geometry" />
        </mxCell>
        <mxCell id="qfSZDwXXwT5z3ixHB-q2-13" value="ScheduleRenovationClick" style="html=1;verticalAlign=bottom;startArrow=oval;endArrow=block;startSize=8;edgeStyle=elbowEdgeStyle;elbow=vertical;curved=0;rounded=0;" parent="1" target="qfSZDwXXwT5z3ixHB-q2-12" edge="1">
          <mxGeometry relative="1" as="geometry">
            <mxPoint x="69.5" y="120" as="sourcePoint" />
            <Array as="points">
              <mxPoint x="195" y="120" />
            </Array>
          </mxGeometry>
        </mxCell>
        <mxCell id="qfSZDwXXwT5z3ixHB-q2-14" value="AccommodationService" style="shape=umlLifeline;perimeter=lifelinePerimeter;whiteSpace=wrap;html=1;container=1;dropTarget=0;collapsible=0;recursiveResize=0;outlineConnect=0;portConstraint=eastwest;newEdgeStyle={&quot;edgeStyle&quot;:&quot;elbowEdgeStyle&quot;,&quot;elbow&quot;:&quot;vertical&quot;,&quot;curved&quot;:0,&quot;rounded&quot;:0};" parent="1" vertex="1">
          <mxGeometry x="340" y="40" width="130" height="2480" as="geometry" />
        </mxCell>
        <mxCell id="qfSZDwXXwT5z3ixHB-q2-19" value="" style="html=1;points=[];perimeter=orthogonalPerimeter;outlineConnect=0;targetShapes=umlLifeline;portConstraint=eastwest;newEdgeStyle={&quot;edgeStyle&quot;:&quot;elbowEdgeStyle&quot;,&quot;elbow&quot;:&quot;vertical&quot;,&quot;curved&quot;:0,&quot;rounded&quot;:0};" parent="qfSZDwXXwT5z3ixHB-q2-14" vertex="1">
          <mxGeometry x="60" y="90" width="10" height="280" as="geometry" />
        </mxCell>
        <mxCell id="qfSZDwXXwT5z3ixHB-q2-15" value="AccommodationRepository" style="shape=umlLifeline;perimeter=lifelinePerimeter;whiteSpace=wrap;html=1;container=1;dropTarget=0;collapsible=0;recursiveResize=0;outlineConnect=0;portConstraint=eastwest;newEdgeStyle={&quot;edgeStyle&quot;:&quot;elbowEdgeStyle&quot;,&quot;elbow&quot;:&quot;vertical&quot;,&quot;curved&quot;:0,&quot;rounded&quot;:0};" parent="1" vertex="1">
          <mxGeometry x="530" y="40" width="150" height="520" as="geometry" />
        </mxCell>
        <mxCell id="qfSZDwXXwT5z3ixHB-q2-23" value="" style="html=1;points=[];perimeter=orthogonalPerimeter;outlineConnect=0;targetShapes=umlLifeline;portConstraint=eastwest;newEdgeStyle={&quot;edgeStyle&quot;:&quot;elbowEdgeStyle&quot;,&quot;elbow&quot;:&quot;vertical&quot;,&quot;curved&quot;:0,&quot;rounded&quot;:0};" parent="qfSZDwXXwT5z3ixHB-q2-15" vertex="1">
          <mxGeometry x="70" y="100" width="10" height="260" as="geometry" />
        </mxCell>
        <mxCell id="qfSZDwXXwT5z3ixHB-q2-20" value="GetAllById(OwnerId)" style="html=1;verticalAlign=bottom;startArrow=oval;endArrow=block;startSize=8;edgeStyle=elbowEdgeStyle;elbow=vertical;curved=0;rounded=0;" parent="1" source="qfSZDwXXwT5z3ixHB-q2-12" target="qfSZDwXXwT5z3ixHB-q2-19" edge="1">
          <mxGeometry relative="1" as="geometry">
            <mxPoint x="340" y="130" as="sourcePoint" />
            <Array as="points">
              <mxPoint x="330" y="130" />
            </Array>
          </mxGeometry>
        </mxCell>
        <mxCell id="qfSZDwXXwT5z3ixHB-q2-22" value="GetAllByOwnerId(OwnerId)" style="html=1;verticalAlign=bottom;endArrow=block;edgeStyle=elbowEdgeStyle;elbow=vertical;curved=0;rounded=0;" parent="1" edge="1">
          <mxGeometry width="80" relative="1" as="geometry">
            <mxPoint x="410" y="140" as="sourcePoint" />
            <mxPoint x="600" y="140" as="targetPoint" />
          </mxGeometry>
        </mxCell>
        <mxCell id="qfSZDwXXwT5z3ixHB-q2-26" value="loop" style="shape=umlFrame;whiteSpace=wrap;html=1;pointerEvents=0;" parent="1" vertex="1">
          <mxGeometry x="530" y="160" width="490" height="200" as="geometry" />
        </mxCell>
        <mxCell id="qfSZDwXXwT5z3ixHB-q2-27" value="opt" style="shape=umlFrame;whiteSpace=wrap;html=1;pointerEvents=0;" parent="1" vertex="1">
          <mxGeometry x="550" y="195" width="440" height="145" as="geometry" />
        </mxCell>
        <mxCell id="qfSZDwXXwT5z3ixHB-q2-28" value="[foreach(accommodation in allAccommodations)]" style="text;align=center;fontStyle=1;verticalAlign=middle;spacingLeft=3;spacingRight=3;strokeColor=none;rotatable=0;points=[[0,0.5],[1,0.5]];portConstraint=eastwest;html=1;fontSize=8;" parent="1" vertex="1">
          <mxGeometry x="670" y="169" width="80" height="26" as="geometry" />
        </mxCell>
        <mxCell id="qfSZDwXXwT5z3ixHB-q2-30" value="[accommodation.OwnerId==OwnerId]" style="text;align=center;fontStyle=1;verticalAlign=middle;spacingLeft=3;spacingRight=3;strokeColor=none;rotatable=0;points=[[0,0.5],[1,0.5]];portConstraint=eastwest;html=1;fontSize=10;" parent="1" vertex="1">
          <mxGeometry x="670" y="200" width="80" height="26" as="geometry" />
        </mxCell>
        <mxCell id="qfSZDwXXwT5z3ixHB-q2-33" value="accommodations" style="html=1;verticalAlign=bottom;endArrow=open;dashed=1;endSize=8;edgeStyle=elbowEdgeStyle;elbow=vertical;curved=0;rounded=0;" parent="1" target="qfSZDwXXwT5z3ixHB-q2-19" edge="1">
          <mxGeometry relative="1" as="geometry">
            <mxPoint x="600" y="390" as="sourcePoint" />
            <mxPoint x="520" y="390" as="targetPoint" />
          </mxGeometry>
        </mxCell>
        <mxCell id="qfSZDwXXwT5z3ixHB-q2-34" value="AccommodationList" style="html=1;verticalAlign=bottom;endArrow=open;dashed=1;endSize=8;edgeStyle=elbowEdgeStyle;elbow=vertical;curved=0;rounded=0;" parent="1" edge="1">
          <mxGeometry relative="1" as="geometry">
            <mxPoint x="400" y="410" as="sourcePoint" />
            <mxPoint x="250" y="410" as="targetPoint" />
          </mxGeometry>
        </mxCell>
        <mxCell id="qfSZDwXXwT5z3ixHB-q2-35" value="DisplayAccommodationList" style="html=1;verticalAlign=bottom;endArrow=open;dashed=1;endSize=8;edgeStyle=elbowEdgeStyle;elbow=vertical;curved=0;rounded=0;" parent="1" target="qfSZDwXXwT5z3ixHB-q2-11" edge="1">
          <mxGeometry relative="1" as="geometry">
            <mxPoint x="250" y="420" as="sourcePoint" />
            <mxPoint x="170" y="420" as="targetPoint" />
          </mxGeometry>
        </mxCell>
        <mxCell id="qfSZDwXXwT5z3ixHB-q2-37" value="SearchFreeDatesCommand" style="html=1;verticalAlign=bottom;endArrow=block;edgeStyle=elbowEdgeStyle;elbow=vertical;curved=0;rounded=0;" parent="1" target="qfSZDwXXwT5z3ixHB-q2-9" edge="1">
          <mxGeometry width="80" relative="1" as="geometry">
            <mxPoint x="70" y="610" as="sourcePoint" />
            <mxPoint x="150" y="610" as="targetPoint" />
          </mxGeometry>
        </mxCell>
        <mxCell id="qfSZDwXXwT5z3ixHB-q2-39" value="GetAll()" style="html=1;verticalAlign=bottom;endArrow=block;edgeStyle=elbowEdgeStyle;elbow=vertical;curved=0;rounded=0;" parent="1" target="qfSZDwXXwT5z3ixHB-q2-42" edge="1">
          <mxGeometry width="80" relative="1" as="geometry">
            <mxPoint x="260" y="620" as="sourcePoint" />
            <mxPoint x="940" y="620" as="targetPoint" />
          </mxGeometry>
        </mxCell>
        <mxCell id="qfSZDwXXwT5z3ixHB-q2-40" value="RenovationService" style="shape=umlLifeline;perimeter=lifelinePerimeter;whiteSpace=wrap;html=1;container=1;dropTarget=0;collapsible=0;recursiveResize=0;outlineConnect=0;portConstraint=eastwest;newEdgeStyle={&quot;edgeStyle&quot;:&quot;elbowEdgeStyle&quot;,&quot;elbow&quot;:&quot;vertical&quot;,&quot;curved&quot;:0,&quot;rounded&quot;:0};" parent="1" vertex="1">
          <mxGeometry x="1600" y="40" width="100" height="2500" as="geometry" />
        </mxCell>
        <mxCell id="qfSZDwXXwT5z3ixHB-q2-77" value="" style="html=1;points=[];perimeter=orthogonalPerimeter;outlineConnect=0;targetShapes=umlLifeline;portConstraint=eastwest;newEdgeStyle={&quot;edgeStyle&quot;:&quot;elbowEdgeStyle&quot;,&quot;elbow&quot;:&quot;vertical&quot;,&quot;curved&quot;:0,&quot;rounded&quot;:0};" parent="qfSZDwXXwT5z3ixHB-q2-40" vertex="1">
          <mxGeometry x="45" y="681" width="10" height="80" as="geometry" />
        </mxCell>
        <mxCell id="IY5zGv8NmIWuaxvN3d0h-4" value="" style="html=1;points=[];perimeter=orthogonalPerimeter;outlineConnect=0;targetShapes=umlLifeline;portConstraint=eastwest;newEdgeStyle={&quot;edgeStyle&quot;:&quot;elbowEdgeStyle&quot;,&quot;elbow&quot;:&quot;vertical&quot;,&quot;curved&quot;:0,&quot;rounded&quot;:0};" parent="qfSZDwXXwT5z3ixHB-q2-40" vertex="1">
          <mxGeometry x="45" y="2140" width="10" height="100" as="geometry" />
        </mxCell>
        <mxCell id="qfSZDwXXwT5z3ixHB-q2-41" value="RenovationRepository" style="shape=umlLifeline;perimeter=lifelinePerimeter;whiteSpace=wrap;html=1;container=1;dropTarget=0;collapsible=0;recursiveResize=0;outlineConnect=0;portConstraint=eastwest;newEdgeStyle={&quot;edgeStyle&quot;:&quot;elbowEdgeStyle&quot;,&quot;elbow&quot;:&quot;vertical&quot;,&quot;curved&quot;:0,&quot;rounded&quot;:0};" parent="1" vertex="1">
          <mxGeometry x="1740" y="40" width="120" height="2520" as="geometry" />
        </mxCell>
        <mxCell id="qfSZDwXXwT5z3ixHB-q2-80" value="" style="html=1;points=[];perimeter=orthogonalPerimeter;outlineConnect=0;targetShapes=umlLifeline;portConstraint=eastwest;newEdgeStyle={&quot;edgeStyle&quot;:&quot;elbowEdgeStyle&quot;,&quot;elbow&quot;:&quot;vertical&quot;,&quot;curved&quot;:0,&quot;rounded&quot;:0};" parent="qfSZDwXXwT5z3ixHB-q2-41" vertex="1">
          <mxGeometry x="55" y="702" width="10" height="38" as="geometry" />
        </mxCell>
        <mxCell id="i1oZyS-LG7X5b-3kOIIO-11" value="" style="html=1;points=[];perimeter=orthogonalPerimeter;outlineConnect=0;targetShapes=umlLifeline;portConstraint=eastwest;newEdgeStyle={&quot;edgeStyle&quot;:&quot;elbowEdgeStyle&quot;,&quot;elbow&quot;:&quot;vertical&quot;,&quot;curved&quot;:0,&quot;rounded&quot;:0};" parent="qfSZDwXXwT5z3ixHB-q2-41" vertex="1">
          <mxGeometry x="55" y="2161" width="10" height="49" as="geometry" />
        </mxCell>
        <mxCell id="qfSZDwXXwT5z3ixHB-q2-42" value="ReservationService" style="shape=umlLifeline;perimeter=lifelinePerimeter;whiteSpace=wrap;html=1;container=1;dropTarget=0;collapsible=0;recursiveResize=0;outlineConnect=0;portConstraint=eastwest;newEdgeStyle={&quot;edgeStyle&quot;:&quot;elbowEdgeStyle&quot;,&quot;elbow&quot;:&quot;vertical&quot;,&quot;curved&quot;:0,&quot;rounded&quot;:0};" parent="1" vertex="1">
          <mxGeometry x="1050" y="40" width="110" height="2480" as="geometry" />
        </mxCell>
        <mxCell id="qfSZDwXXwT5z3ixHB-q2-44" value="" style="html=1;points=[];perimeter=orthogonalPerimeter;outlineConnect=0;targetShapes=umlLifeline;portConstraint=eastwest;newEdgeStyle={&quot;edgeStyle&quot;:&quot;elbowEdgeStyle&quot;,&quot;elbow&quot;:&quot;vertical&quot;,&quot;curved&quot;:0,&quot;rounded&quot;:0};" parent="qfSZDwXXwT5z3ixHB-q2-42" vertex="1">
          <mxGeometry x="50" y="580" width="10" height="60" as="geometry" />
        </mxCell>
        <mxCell id="qfSZDwXXwT5z3ixHB-q2-43" value="ReservationRepository" style="shape=umlLifeline;perimeter=lifelinePerimeter;whiteSpace=wrap;html=1;container=1;dropTarget=0;collapsible=0;recursiveResize=0;outlineConnect=0;portConstraint=eastwest;newEdgeStyle={&quot;edgeStyle&quot;:&quot;elbowEdgeStyle&quot;,&quot;elbow&quot;:&quot;vertical&quot;,&quot;curved&quot;:0,&quot;rounded&quot;:0};" parent="1" vertex="1">
          <mxGeometry x="1280" y="40" width="130" height="2210" as="geometry" />
        </mxCell>
        <mxCell id="qfSZDwXXwT5z3ixHB-q2-46" value="" style="html=1;points=[];perimeter=orthogonalPerimeter;outlineConnect=0;targetShapes=umlLifeline;portConstraint=eastwest;newEdgeStyle={&quot;edgeStyle&quot;:&quot;elbowEdgeStyle&quot;,&quot;elbow&quot;:&quot;vertical&quot;,&quot;curved&quot;:0,&quot;rounded&quot;:0};" parent="qfSZDwXXwT5z3ixHB-q2-43" vertex="1">
          <mxGeometry x="60" y="591" width="10" height="29" as="geometry" />
        </mxCell>
        <mxCell id="qfSZDwXXwT5z3ixHB-q2-45" value="GetAll()" style="html=1;verticalAlign=bottom;endArrow=block;edgeStyle=elbowEdgeStyle;elbow=vertical;curved=0;rounded=0;" parent="1" target="qfSZDwXXwT5z3ixHB-q2-43" edge="1">
          <mxGeometry x="0.0249" y="10" width="80" relative="1" as="geometry">
            <mxPoint x="1110" y="630" as="sourcePoint" />
            <mxPoint x="1190" y="630" as="targetPoint" />
            <mxPoint as="offset" />
          </mxGeometry>
        </mxCell>
        <mxCell id="qfSZDwXXwT5z3ixHB-q2-47" value="reservations" style="html=1;verticalAlign=bottom;endArrow=open;dashed=1;endSize=8;edgeStyle=elbowEdgeStyle;elbow=vertical;curved=0;rounded=0;" parent="1" target="qfSZDwXXwT5z3ixHB-q2-42" edge="1">
          <mxGeometry relative="1" as="geometry">
            <mxPoint x="1340" y="660" as="sourcePoint" />
            <mxPoint x="1260" y="710" as="targetPoint" />
            <Array as="points">
              <mxPoint x="1290" y="660" />
            </Array>
          </mxGeometry>
        </mxCell>
        <mxCell id="qfSZDwXXwT5z3ixHB-q2-48" value="reservations" style="html=1;verticalAlign=bottom;endArrow=open;dashed=1;endSize=8;edgeStyle=elbowEdgeStyle;elbow=vertical;curved=0;rounded=0;" parent="1" source="qfSZDwXXwT5z3ixHB-q2-44" target="qfSZDwXXwT5z3ixHB-q2-9" edge="1">
          <mxGeometry relative="1" as="geometry">
            <mxPoint x="1110" y="730" as="sourcePoint" />
            <mxPoint x="1030" y="730" as="targetPoint" />
            <Array as="points">
              <mxPoint x="970" y="680" />
              <mxPoint x="1100" y="660" />
            </Array>
          </mxGeometry>
        </mxCell>
        <mxCell id="qfSZDwXXwT5z3ixHB-q2-49" value="loop" style="shape=umlFrame;whiteSpace=wrap;html=1;pointerEvents=0;" parent="1" vertex="1">
          <mxGeometry x="160" y="929" width="230" height="230" as="geometry" />
        </mxCell>
        <mxCell id="qfSZDwXXwT5z3ixHB-q2-51" value="&lt;font style=&quot;font-size: 9px;&quot;&gt;[foreach(reservation in reservations)]&lt;/font&gt;" style="text;align=center;fontStyle=1;verticalAlign=middle;spacingLeft=3;spacingRight=3;strokeColor=none;rotatable=0;points=[[0,0.5],[1,0.5]];portConstraint=eastwest;html=1;" parent="1" vertex="1">
          <mxGeometry x="260" y="929" width="80" height="26" as="geometry" />
        </mxCell>
        <mxCell id="qfSZDwXXwT5z3ixHB-q2-52" value="opt" style="shape=umlFrame;whiteSpace=wrap;html=1;pointerEvents=0;" parent="1" vertex="1">
          <mxGeometry x="170" y="969" width="210" height="180" as="geometry" />
        </mxCell>
        <mxCell id="qfSZDwXXwT5z3ixHB-q2-53" value="&lt;font style=&quot;font-size: 4px;&quot;&gt;&lt;font style=&quot;font-size: 4px;&quot;&gt;[reservation.AccommodationId == SelectedAccommodation.Id&amp;nbsp;&lt;br&gt;&lt;/font&gt;&lt;font style=&quot;font-size: 4px;&quot;&gt;&amp;amp;&amp;amp; !(startDate.Date &amp;gt;= reservation.EndDate.Date &lt;br&gt;|| tempDate.Date &amp;lt;= reservation.StartDate)]&lt;/font&gt;&lt;/font&gt;" style="text;align=center;fontStyle=1;verticalAlign=middle;spacingLeft=3;spacingRight=3;strokeColor=none;rotatable=0;points=[[0,0.5],[1,0.5]];portConstraint=eastwest;html=1;" parent="1" vertex="1">
          <mxGeometry x="270" y="979" width="80" height="26" as="geometry" />
        </mxCell>
        <mxCell id="qfSZDwXXwT5z3ixHB-q2-57" value="check=false" style="html=1;align=left;spacingLeft=2;endArrow=block;rounded=0;edgeStyle=orthogonalEdgeStyle;curved=0;rounded=0;" parent="1" edge="1">
          <mxGeometry relative="1" as="geometry">
            <mxPoint x="255" y="1019" as="sourcePoint" />
            <Array as="points">
              <mxPoint x="285" y="1049" />
            </Array>
            <mxPoint x="259.9999999999998" y="1049" as="targetPoint" />
          </mxGeometry>
        </mxCell>
        <mxCell id="qfSZDwXXwT5z3ixHB-q2-62" value="opt" style="shape=umlFrame;whiteSpace=wrap;html=1;pointerEvents=0;" parent="1" vertex="1">
          <mxGeometry x="160" y="1239" width="410" height="404" as="geometry" />
        </mxCell>
        <mxCell id="qfSZDwXXwT5z3ixHB-q2-63" value="[check==true]" style="text;align=center;fontStyle=1;verticalAlign=middle;spacingLeft=3;spacingRight=3;strokeColor=none;rotatable=0;points=[[0,0.5],[1,0.5]];portConstraint=eastwest;html=1;" parent="1" vertex="1">
          <mxGeometry x="270" y="1239" width="80" height="26" as="geometry" />
        </mxCell>
        <mxCell id="qfSZDwXXwT5z3ixHB-q2-76" value="GetAll()" style="html=1;verticalAlign=bottom;endArrow=block;edgeStyle=elbowEdgeStyle;elbow=vertical;curved=0;rounded=0;" parent="1" target="qfSZDwXXwT5z3ixHB-q2-40" edge="1">
          <mxGeometry width="80" relative="1" as="geometry">
            <mxPoint x="250" y="720" as="sourcePoint" />
            <mxPoint x="330" y="720" as="targetPoint" />
          </mxGeometry>
        </mxCell>
        <mxCell id="qfSZDwXXwT5z3ixHB-q2-78" value="renovations" style="html=1;verticalAlign=bottom;endArrow=open;dashed=1;endSize=8;edgeStyle=elbowEdgeStyle;elbow=vertical;curved=0;rounded=0;" parent="1" target="qfSZDwXXwT5z3ixHB-q2-38" edge="1">
          <mxGeometry relative="1" as="geometry">
            <mxPoint x="1640" y="800" as="sourcePoint" />
            <mxPoint x="1560" y="800" as="targetPoint" />
          </mxGeometry>
        </mxCell>
        <mxCell id="qfSZDwXXwT5z3ixHB-q2-79" value="GetAll()" style="html=1;verticalAlign=bottom;endArrow=block;edgeStyle=elbowEdgeStyle;elbow=vertical;curved=0;rounded=0;" parent="1" target="qfSZDwXXwT5z3ixHB-q2-41" edge="1">
          <mxGeometry width="80" relative="1" as="geometry">
            <mxPoint x="1650" y="740" as="sourcePoint" />
            <mxPoint x="1730" y="740" as="targetPoint" />
          </mxGeometry>
        </mxCell>
        <mxCell id="qfSZDwXXwT5z3ixHB-q2-81" value="renovations" style="html=1;verticalAlign=bottom;endArrow=open;dashed=1;endSize=8;edgeStyle=elbowEdgeStyle;elbow=vertical;curved=0;rounded=0;" parent="1" target="qfSZDwXXwT5z3ixHB-q2-40" edge="1">
          <mxGeometry relative="1" as="geometry">
            <mxPoint x="1790" y="780" as="sourcePoint" />
            <mxPoint x="1710" y="780" as="targetPoint" />
          </mxGeometry>
        </mxCell>
        <mxCell id="qfSZDwXXwT5z3ixHB-q2-82" value="loop" style="shape=umlFrame;whiteSpace=wrap;html=1;pointerEvents=0;" parent="1" vertex="1">
          <mxGeometry x="170" y="1283" width="390" height="340" as="geometry" />
        </mxCell>
        <mxCell id="qfSZDwXXwT5z3ixHB-q2-83" value="[foreach(renovation in renovations)]" style="text;align=center;fontStyle=1;verticalAlign=middle;spacingLeft=3;spacingRight=3;strokeColor=none;rotatable=0;points=[[0,0.5],[1,0.5]];portConstraint=eastwest;html=1;" parent="1" vertex="1">
          <mxGeometry x="340" y="1293" width="80" height="26" as="geometry" />
        </mxCell>
        <mxCell id="qfSZDwXXwT5z3ixHB-q2-84" value="opt" style="shape=umlFrame;whiteSpace=wrap;html=1;pointerEvents=0;" parent="1" vertex="1">
          <mxGeometry x="180" y="1333" width="370" height="280" as="geometry" />
        </mxCell>
        <mxCell id="qfSZDwXXwT5z3ixHB-q2-85" value="&lt;font style=&quot;font-size: 10px;&quot;&gt;[renovation.AccommodationId == SelectedAccommodation.Id &lt;br&gt;&amp;amp;&amp;amp; !(startDate.Date &amp;gt;= renovation.EndDate.Date&lt;br&gt;&amp;nbsp;|| tempDate.Date &amp;lt;= renovation.StartDate)]&lt;/font&gt;" style="text;align=center;fontStyle=1;verticalAlign=middle;spacingLeft=3;spacingRight=3;strokeColor=none;rotatable=0;points=[[0,0.5],[1,0.5]];portConstraint=eastwest;html=1;" parent="1" vertex="1">
          <mxGeometry x="350" y="1343" width="80" height="26" as="geometry" />
        </mxCell>
        <mxCell id="qfSZDwXXwT5z3ixHB-q2-87" value="check=false" style="html=1;align=left;spacingLeft=2;endArrow=block;rounded=0;edgeStyle=orthogonalEdgeStyle;curved=0;rounded=0;" parent="1" edge="1">
          <mxGeometry x="0.1765" y="24" relative="1" as="geometry">
            <mxPoint x="256" y="1393" as="sourcePoint" />
            <Array as="points">
              <mxPoint x="286" y="1423" />
            </Array>
            <mxPoint x="261" y="1423" as="targetPoint" />
            <mxPoint as="offset" />
          </mxGeometry>
        </mxCell>
        <mxCell id="qfSZDwXXwT5z3ixHB-q2-90" value="opt" style="shape=umlFrame;whiteSpace=wrap;html=1;pointerEvents=0;" parent="1" vertex="1">
          <mxGeometry x="160" y="1703" width="300" height="200" as="geometry" />
        </mxCell>
        <mxCell id="qfSZDwXXwT5z3ixHB-q2-91" value="[check==true]" style="text;align=center;fontStyle=1;verticalAlign=middle;spacingLeft=3;spacingRight=3;strokeColor=none;rotatable=0;points=[[0,0.5],[1,0.5]];portConstraint=eastwest;html=1;" parent="1" vertex="1">
          <mxGeometry x="270" y="1703" width="80" height="26" as="geometry" />
        </mxCell>
        <mxCell id="qfSZDwXXwT5z3ixHB-q2-92" value="" style="html=1;points=[];perimeter=orthogonalPerimeter;outlineConnect=0;targetShapes=umlLifeline;portConstraint=eastwest;newEdgeStyle={&quot;edgeStyle&quot;:&quot;elbowEdgeStyle&quot;,&quot;elbow&quot;:&quot;vertical&quot;,&quot;curved&quot;:0,&quot;rounded&quot;:0};" parent="1" vertex="1">
          <mxGeometry x="251" y="1793" width="10" height="40" as="geometry" />
        </mxCell>
        <mxCell id="qfSZDwXXwT5z3ixHB-q2-93" value="IntervalList.Add(interval)" style="html=1;align=left;spacingLeft=2;endArrow=block;rounded=0;edgeStyle=orthogonalEdgeStyle;curved=0;rounded=0;" parent="1" target="qfSZDwXXwT5z3ixHB-q2-92" edge="1">
          <mxGeometry relative="1" as="geometry">
            <mxPoint x="256" y="1773" as="sourcePoint" />
            <Array as="points">
              <mxPoint x="286" y="1803" />
            </Array>
          </mxGeometry>
        </mxCell>
        <mxCell id="qfSZDwXXwT5z3ixHB-q2-94" value="" style="html=1;points=[];perimeter=orthogonalPerimeter;outlineConnect=0;targetShapes=umlLifeline;portConstraint=eastwest;newEdgeStyle={&quot;edgeStyle&quot;:&quot;elbowEdgeStyle&quot;,&quot;elbow&quot;:&quot;vertical&quot;,&quot;curved&quot;:0,&quot;rounded&quot;:0};" parent="1" vertex="1">
          <mxGeometry x="251" y="1413" width="10" height="40" as="geometry" />
        </mxCell>
        <mxCell id="qfSZDwXXwT5z3ixHB-q2-95" value="" style="html=1;points=[];perimeter=orthogonalPerimeter;outlineConnect=0;targetShapes=umlLifeline;portConstraint=eastwest;newEdgeStyle={&quot;edgeStyle&quot;:&quot;elbowEdgeStyle&quot;,&quot;elbow&quot;:&quot;vertical&quot;,&quot;curved&quot;:0,&quot;rounded&quot;:0};" parent="1" vertex="1">
          <mxGeometry x="250" y="1039" width="10" height="40" as="geometry" />
        </mxCell>
        <mxCell id="qfSZDwXXwT5z3ixHB-q2-96" value="loop" style="shape=umlFrame;whiteSpace=wrap;html=1;pointerEvents=0;" parent="1" vertex="1">
          <mxGeometry x="130" y="820" width="480" height="1104" as="geometry" />
        </mxCell>
        <mxCell id="qfSZDwXXwT5z3ixHB-q2-98" value="[tempDate.Date&amp;lt;=endDate.Date]" style="text;align=center;fontStyle=1;verticalAlign=middle;spacingLeft=3;spacingRight=3;strokeColor=none;rotatable=0;points=[[0,0.5],[1,0.5]];portConstraint=eastwest;html=1;" parent="1" vertex="1">
          <mxGeometry x="330" y="830" width="80" height="26" as="geometry" />
        </mxCell>
        <mxCell id="qfSZDwXXwT5z3ixHB-q2-99" value="IntervalList Display" style="html=1;verticalAlign=bottom;endArrow=open;dashed=1;endSize=8;edgeStyle=elbowEdgeStyle;elbow=vertical;curved=0;rounded=0;" parent="1" target="qfSZDwXXwT5z3ixHB-q2-11" edge="1">
          <mxGeometry relative="1" as="geometry">
            <mxPoint x="250" y="1940" as="sourcePoint" />
            <mxPoint x="170" y="1940" as="targetPoint" />
          </mxGeometry>
        </mxCell>
        <mxCell id="i1oZyS-LG7X5b-3kOIIO-2" value="" style="endArrow=open;endFill=1;endSize=12;html=1;rounded=0;" parent="1" edge="1">
          <mxGeometry width="160" relative="1" as="geometry">
            <mxPoint x="70" y="2080" as="sourcePoint" />
            <mxPoint x="850" y="2080" as="targetPoint" />
          </mxGeometry>
        </mxCell>
        <mxCell id="i1oZyS-LG7X5b-3kOIIO-3" value="LeaveCommentForm" style="shape=umlLifeline;perimeter=lifelinePerimeter;whiteSpace=wrap;html=1;container=1;dropTarget=0;collapsible=0;recursiveResize=0;outlineConnect=0;portConstraint=eastwest;newEdgeStyle={&quot;edgeStyle&quot;:&quot;elbowEdgeStyle&quot;,&quot;elbow&quot;:&quot;vertical&quot;,&quot;curved&quot;:0,&quot;rounded&quot;:0};" parent="1" vertex="1">
          <mxGeometry x="790" y="2000" width="130" height="540" as="geometry" />
        </mxCell>
        <mxCell id="i1oZyS-LG7X5b-3kOIIO-4" value="" style="html=1;points=[];perimeter=orthogonalPerimeter;outlineConnect=0;targetShapes=umlLifeline;portConstraint=eastwest;newEdgeStyle={&quot;edgeStyle&quot;:&quot;elbowEdgeStyle&quot;,&quot;elbow&quot;:&quot;vertical&quot;,&quot;curved&quot;:0,&quot;rounded&quot;:0};" parent="i1oZyS-LG7X5b-3kOIIO-3" vertex="1">
          <mxGeometry x="60" y="80" width="10" height="230" as="geometry" />
        </mxCell>
        <mxCell id="i1oZyS-LG7X5b-3kOIIO-8" value="" style="endArrow=open;endFill=1;endSize=12;html=1;rounded=0;" parent="1" edge="1">
          <mxGeometry width="160" relative="1" as="geometry">
            <mxPoint x="860" y="2180" as="sourcePoint" />
            <mxPoint x="1649.5" y="2180" as="targetPoint" />
            <Array as="points">
              <mxPoint x="1040" y="2180" />
            </Array>
          </mxGeometry>
        </mxCell>
        <mxCell id="i1oZyS-LG7X5b-3kOIIO-10" value="" style="endArrow=open;endFill=1;endSize=12;html=1;rounded=0;" parent="1" edge="1">
          <mxGeometry width="160" relative="1" as="geometry">
            <mxPoint x="1650" y="2200" as="sourcePoint" />
            <mxPoint x="1800" y="2200" as="targetPoint" />
          </mxGeometry>
        </mxCell>
        <mxCell id="i1oZyS-LG7X5b-3kOIIO-12" value="&amp;nbsp;ScheduleRenovationCommand" style="text;html=1;align=center;verticalAlign=middle;resizable=0;points=[];autosize=1;strokeColor=none;fillColor=none;" parent="1" vertex="1">
          <mxGeometry x="130" y="2048" width="190" height="30" as="geometry" />
        </mxCell>
        <mxCell id="i1oZyS-LG7X5b-3kOIIO-13" value="SaveCommentCommand" style="text;html=1;align=center;verticalAlign=middle;resizable=0;points=[];autosize=1;strokeColor=none;fillColor=none;" parent="1" vertex="1">
          <mxGeometry x="1110" y="2150" width="160" height="30" as="geometry" />
        </mxCell>
        <mxCell id="i1oZyS-LG7X5b-3kOIIO-14" value="Add(renovation)" style="text;html=1;align=center;verticalAlign=middle;resizable=0;points=[];autosize=1;strokeColor=none;fillColor=none;" parent="1" vertex="1">
          <mxGeometry x="1670" y="2170" width="110" height="30" as="geometry" />
        </mxCell>
        <mxCell id="IY5zGv8NmIWuaxvN3d0h-2" value="&amp;lt;&amp;lt;create&amp;gt;&amp;gt; allAccommodations" style="html=1;verticalAlign=bottom;endArrow=block;edgeStyle=elbowEdgeStyle;elbow=vertical;curved=0;rounded=0;" parent="1" edge="1">
          <mxGeometry width="80" relative="1" as="geometry">
            <mxPoint x="610" y="146" as="sourcePoint" />
            <mxPoint x="890" y="146" as="targetPoint" />
          </mxGeometry>
        </mxCell>
        <mxCell id="IY5zGv8NmIWuaxvN3d0h-3" value="Accommodation" style="shape=umlLifeline;perimeter=lifelinePerimeter;whiteSpace=wrap;html=1;container=1;dropTarget=0;collapsible=0;recursiveResize=0;outlineConnect=0;portConstraint=eastwest;newEdgeStyle={&quot;edgeStyle&quot;:&quot;elbowEdgeStyle&quot;,&quot;elbow&quot;:&quot;vertical&quot;,&quot;curved&quot;:0,&quot;rounded&quot;:0};" parent="1" vertex="1">
          <mxGeometry x="892" y="128" width="100" height="300" as="geometry" />
        </mxCell>
        <mxCell id="IY5zGv8NmIWuaxvN3d0h-10" value="" style="html=1;points=[];perimeter=orthogonalPerimeter;outlineConnect=0;targetShapes=umlLifeline;portConstraint=eastwest;newEdgeStyle={&quot;edgeStyle&quot;:&quot;elbowEdgeStyle&quot;,&quot;elbow&quot;:&quot;vertical&quot;,&quot;curved&quot;:0,&quot;rounded&quot;:0};" parent="IY5zGv8NmIWuaxvN3d0h-3" vertex="1">
          <mxGeometry x="45" y="123" width="10" height="37" as="geometry" />
        </mxCell>
        <mxCell id="IY5zGv8NmIWuaxvN3d0h-5" value="" style="html=1;verticalAlign=bottom;endArrow=open;dashed=1;endSize=8;edgeStyle=elbowEdgeStyle;elbow=vertical;curved=0;rounded=0;" parent="1" target="qfSZDwXXwT5z3ixHB-q2-40" edge="1">
          <mxGeometry relative="1" as="geometry">
            <mxPoint x="1790" y="2250" as="sourcePoint" />
            <mxPoint x="1710" y="2250" as="targetPoint" />
          </mxGeometry>
        </mxCell>
        <mxCell id="IY5zGv8NmIWuaxvN3d0h-6" value="" style="html=1;verticalAlign=bottom;endArrow=open;dashed=1;endSize=8;edgeStyle=elbowEdgeStyle;elbow=vertical;curved=0;rounded=0;" parent="1" target="i1oZyS-LG7X5b-3kOIIO-3" edge="1">
          <mxGeometry relative="1" as="geometry">
            <mxPoint x="1650" y="2280" as="sourcePoint" />
            <mxPoint x="1570" y="2280" as="targetPoint" />
          </mxGeometry>
        </mxCell>
        <mxCell id="IY5zGv8NmIWuaxvN3d0h-7" value="" style="html=1;verticalAlign=bottom;endArrow=open;dashed=1;endSize=8;edgeStyle=elbowEdgeStyle;elbow=vertical;curved=0;rounded=0;" parent="1" target="qfSZDwXXwT5z3ixHB-q2-11" edge="1">
          <mxGeometry relative="1" as="geometry">
            <mxPoint x="850" y="2310" as="sourcePoint" />
            <mxPoint x="770" y="2310" as="targetPoint" />
          </mxGeometry>
        </mxCell>
        <mxCell id="IY5zGv8NmIWuaxvN3d0h-9" value="accommodations.Add(accommodation)" style="html=1;verticalAlign=bottom;endArrow=block;edgeStyle=elbowEdgeStyle;elbow=vertical;curved=0;rounded=0;" parent="1" target="IY5zGv8NmIWuaxvN3d0h-3" edge="1">
          <mxGeometry width="80" relative="1" as="geometry">
            <mxPoint x="610" y="250" as="sourcePoint" />
            <mxPoint x="690" y="250" as="targetPoint" />
          </mxGeometry>
        </mxCell>
        <mxCell id="IY5zGv8NmIWuaxvN3d0h-13" value="" style="html=1;verticalAlign=bottom;endArrow=open;dashed=1;endSize=8;edgeStyle=elbowEdgeStyle;elbow=vertical;curved=0;rounded=0;" parent="1" source="IY5zGv8NmIWuaxvN3d0h-3" edge="1">
          <mxGeometry relative="1" as="geometry">
            <mxPoint x="690" y="290" as="sourcePoint" />
            <mxPoint x="610" y="290" as="targetPoint" />
          </mxGeometry>
        </mxCell>
        <mxCell id="JaNQMcjtm63amjuBf7cL-3" value="break" style="shape=umlFrame;whiteSpace=wrap;html=1;pointerEvents=0;" vertex="1" parent="1">
          <mxGeometry x="210" y="1480" width="240" height="70" as="geometry" />
        </mxCell>
        <mxCell id="JaNQMcjtm63amjuBf7cL-4" value="break" style="shape=umlFrame;whiteSpace=wrap;html=1;pointerEvents=0;" vertex="1" parent="1">
          <mxGeometry x="210" y="1088" width="130" height="61" as="geometry" />
        </mxCell>
        <mxCell id="JaNQMcjtm63amjuBf7cL-5" value="true" style="text;align=center;fontStyle=1;verticalAlign=middle;spacingLeft=3;spacingRight=3;strokeColor=none;rotatable=0;points=[[0,0.5],[1,0.5]];portConstraint=eastwest;html=1;" vertex="1" parent="1">
          <mxGeometry x="290" y="1480" width="80" height="26" as="geometry" />
        </mxCell>
        <mxCell id="JaNQMcjtm63amjuBf7cL-6" value="true" style="text;align=center;fontStyle=1;verticalAlign=middle;spacingLeft=3;spacingRight=3;strokeColor=none;rotatable=0;points=[[0,0.5],[1,0.5]];portConstraint=eastwest;html=1;" vertex="1" parent="1">
          <mxGeometry x="261" y="1088" width="80" height="26" as="geometry" />
        </mxCell>
      </root>
    </mxGraphModel>
  </diagram>
</mxfile>
